<?xml version="1.0" encoding="UTF-8" standalone="no"?>
<!-- Created with Inkscape (http://www.inkscape.org/) -->

<svg
   width="512mm"
   height="512mm"
   viewBox="0 0 512 512"
   version="1.1"
   id="svg1"
   sodipodi:docname="ai-chatbot.svg"
   inkscape:version="1.3.2 (091e20e, 2023-11-25, custom)"
   inkscape:export-filename="ai-chatbot.png"
   inkscape:export-xdpi="96"
   inkscape:export-ydpi="96"
   xmlns:inkscape="http://www.inkscape.org/namespaces/inkscape"
   xmlns:sodipodi="http://sodipodi.sourceforge.net/DTD/sodipodi-0.dtd"
   xmlns="http://www.w3.org/2000/svg"
   xmlns:svg="http://www.w3.org/2000/svg">
  <sodipodi:namedview
     id="namedview1"
     pagecolor="#505050"
     bordercolor="#eeeeee"
     borderopacity="1"
     inkscape:showpageshadow="0"
     inkscape:pageopacity="0"
     inkscape:pagecheckerboard="0"
     inkscape:deskcolor="#505050"
     inkscape:document-units="mm"
     inkscape:zoom="0.83405762"
     inkscape:cx="967.55906"
     inkscape:cy="967.55906"
     inkscape:window-width="3200"
     inkscape:window-height="1960"
     inkscape:window-x="-12"
     inkscape:window-y="-12"
     inkscape:window-maximized="1"
     inkscape:current-layer="svg1" />
  <defs
     id="defs1" />
  <path
     style="stroke-width:0.264584;fill:#ffdd07;fill-opacity:1"
     d="m 240.29993,135.18475 v -22.4807 a 57.133788,57.133788 0 0 1 -7.9298,-3.68744 48.292125,48.292125 0 0 1 -20.02266,-59.869571 49.124748,49.124748 0 0 1 10.46728,-15.661175 48.411071,48.411071 0 0 1 15.54233,-10.427549 47.578448,47.578448 0 0 1 18.47631,-3.647731 48.133529,48.133529 0 0 1 44.48578,29.736455 48.133529,48.133529 0 0 1 0,36.754383 47.895637,47.895637 0 0 1 -10.46726,15.621628 l -0.23827,0.23826 a 50.512451,50.512451 0 0 1 -9.35715,7.2556 44.644444,44.644444 0 0 1 -7.92977,3.68745 v 22.48069 h 112.9196 a 61.336547,61.336547 0 0 1 61.13824,61.17795 v 9.07961 h 20.93452 a 31.441425,31.441425 0 0 1 31.3225,31.36206 v 72.83474 a 31.441425,31.441425 0 0 1 -31.3225,31.36206 h -20.81553 v 8.20733 a 61.376197,61.376197 0 0 1 -61.25723,61.17793 H 231.33885 l -92.85724,79.73355 a 10.229366,10.229366 0 0 1 -14.4718,-1.14937 10.42761,10.42761 0 0 1 -2.49791,-7.33504 l 4.95611,-71.36767 h -0.83319 A 61.25725,61.25725 0 0 1 64.536156,349.20925 v -8.20732 H 43.720474 A 31.441425,31.441425 0 0 1 12.358407,309.63987 v -72.83474 a 31.441425,31.441425 0 0 1 31.322501,-31.36207 h 20.855248 v -9.11918 A 61.25725,61.25725 0 0 1 125.63482,135.1855 Z"
     id="path1" />
  <path
     style="fill:#ea9100;fill-opacity:1;stroke-width:0.264584"
     d="M 387.92569,152.11971 H 124.1145 a 41.185393,41.185393 0 0 0 -41.024945,41.06485 v 154.74633 a 41.185393,41.185393 0 0 0 41.024945,41.06499 h 12.72477 a 10.476985,10.476985 0 0 1 9.67422,11.11917 l -4.01413,58.52669 77.47353,-66.67539 a 10.276277,10.276277 0 0 1 7.34581,-3.01067 h 160.56694 a 41.185393,41.185393 0 0 0 41.02479,-41.06484 V 193.14452 a 41.105108,41.105108 0 0 0 -40.98474,-41.02481 z"
     id="path5" />
  <g
     id="g5"
     transform="matrix(1.1641317,0,0,1.1641317,-42.018476,-43.337546)"
     style="stroke-width:0.859009;fill:#333333;fill-opacity:1">
    <path
       style="stroke-width:0.22728;fill:#333333;fill-opacity:1"
       d="m 204.58787,321.54566 a 7.861919,7.861919 0 0 1 -1.31029,-1.31043 7.517098,7.517098 0 0 1 -1.79316,-4.68951 7.6205444,7.6205444 0 0 1 1.58619,-4.793 8.2757041,8.2757041 0 0 1 1.34483,-1.34485 11.103236,11.103236 0 0 1 13.37902,-0.27629 77.101979,77.101979 0 0 0 19.4135,11.17221 51.240403,51.240403 0 0 0 18.86169,3.44817 55.79204,55.79204 0 0 0 19.06854,-3.79302 87.55005,87.55005 0 0 0 19.82728,-11.10325 11.172201,11.172201 0 0 1 13.41355,0.62035 10.34463,10.34463 0 0 1 1.27589,1.41378 7.6550264,7.6550264 0 0 1 1.44831,4.82753 8.0343295,8.0343295 0 0 1 -1.99998,4.65512 7.8964013,7.8964013 0 0 1 -1.48272,1.3103 105.48075,105.48075 0 0 1 -25.27543,13.7928 76.826121,76.826121 0 0 1 -25.965,4.93101 73.17102,73.17102 0 0 1 -26.06847,-4.41375 95.791276,95.791276 0 0 1 -25.5512,-14.3446 v 0 z"
       id="path4" />
    <path
       style="stroke-width:0.22728;fill:#333333;fill-opacity:1"
       d="m 182.58832,213.40971 a 32.275247,32.275247 0 1 1 -32.27526,32.27525 32.275247,32.275247 0 0 1 32.27526,-32.27525 z"
       id="path3" />
    <path
       style="stroke-width:0.22728;fill:#333333;fill-opacity:1"
       d="m 329.41299,213.40971 a 32.275247,32.275247 0 1 1 -32.27525,32.27525 32.275247,32.275247 0 0 1 32.27525,-32.27525 z"
       id="path2" />
  </g>
</svg>
