<?xml version="1.0" encoding="UTF-8" standalone="no"?>
<!-- Created with Inkscape (http://www.inkscape.org/) -->

<svg
   width="512mm"
   height="512mm"
   viewBox="0 0 512 512"
   version="1.1"
   id="svg1"
   sodipodi:docname="ai-chatbot-small.svg"
   inkscape:version="1.3.2 (091e20e, 2023-11-25, custom)"
   xmlns:inkscape="http://www.inkscape.org/namespaces/inkscape"
   xmlns:sodipodi="http://sodipodi.sourceforge.net/DTD/sodipodi-0.dtd"
   xmlns="http://www.w3.org/2000/svg"
   xmlns:svg="http://www.w3.org/2000/svg">
  <sodipodi:namedview
     id="namedview1"
     pagecolor="#505050"
     bordercolor="#eeeeee"
     borderopacity="1"
     inkscape:showpageshadow="0"
     inkscape:pageopacity="0"
     inkscape:pagecheckerboard="0"
     inkscape:deskcolor="#505050"
     inkscape:document-units="mm"
     inkscape:zoom="0.5897678"
     inkscape:cx="642.6258"
     inkscape:cy="1063.1303"
     inkscape:window-width="3200"
     inkscape:window-height="1960"
     inkscape:window-x="-12"
     inkscape:window-y="-12"
     inkscape:window-maximized="1"
     inkscape:current-layer="layer1" />
  <defs
     id="defs1" />
  <g
     id="layer1">
    <g
       id="g1"
       transform="matrix(1.3931734,0,0,1.3931734,-100.65237,-169.44829)"
       style="stroke-width:0.717786">
      <path
         style="fill:#ffffff;fill-opacity:1;stroke-width:0.189915"
         d="M 387.92569,152.11971 H 124.1145 a 41.185393,41.185393 0 0 0 -41.024945,41.06485 v 154.74633 a 41.185393,41.185393 0 0 0 41.024945,41.06499 h 12.72477 a 10.476985,10.476985 0 0 1 9.67422,11.11917 l -4.01413,58.52669 77.47353,-66.67539 a 10.276277,10.276277 0 0 1 7.34581,-3.01067 h 160.56694 a 41.185393,41.185393 0 0 0 41.02479,-41.06484 V 193.14452 a 41.105108,41.105108 0 0 0 -40.98474,-41.02481 z"
         id="path5" />
      <g
         id="g5"
         transform="matrix(1.1641317,0,0,1.1641317,-42.018476,-43.337546)"
         style="stroke-width:0.616585">
        <path
           style="stroke-width:0.163138"
           d="m 204.58787,321.54566 a 7.861919,7.861919 0 0 1 -1.31029,-1.31043 7.517098,7.517098 0 0 1 -1.79316,-4.68951 7.6205444,7.6205444 0 0 1 1.58619,-4.793 8.2757041,8.2757041 0 0 1 1.34483,-1.34485 11.103236,11.103236 0 0 1 13.37902,-0.27629 77.101979,77.101979 0 0 0 19.4135,11.17221 51.240403,51.240403 0 0 0 18.86169,3.44817 55.79204,55.79204 0 0 0 19.06854,-3.79302 87.55005,87.55005 0 0 0 19.82728,-11.10325 11.172201,11.172201 0 0 1 13.41355,0.62035 10.34463,10.34463 0 0 1 1.27589,1.41378 7.6550264,7.6550264 0 0 1 1.44831,4.82753 8.0343295,8.0343295 0 0 1 -1.99998,4.65512 7.8964013,7.8964013 0 0 1 -1.48272,1.3103 105.48075,105.48075 0 0 1 -25.27543,13.7928 76.826121,76.826121 0 0 1 -25.965,4.93101 73.17102,73.17102 0 0 1 -26.06847,-4.41375 95.791276,95.791276 0 0 1 -25.5512,-14.3446 v 0 z"
           id="path4" />
        <path
           style="stroke-width:0.163138"
           d="m 182.58832,213.40971 a 32.275247,32.275247 0 1 1 -32.27526,32.27525 32.275247,32.275247 0 0 1 32.27526,-32.27525 z"
           id="path3" />
        <path
           style="stroke-width:0.163138"
           d="m 329.41299,213.40971 a 32.275247,32.275247 0 1 1 -32.27525,32.27525 32.275247,32.275247 0 0 1 32.27525,-32.27525 z"
           id="path2" />
      </g>
    </g>
  </g>
</svg>
